<svg xmlns="http://www.w3.org/2000/svg" viewBox="0 0 120 120" width="120" height="120">
  <circle cx="60" cy="60" r="55" fill="#1A1A1A" stroke="#C9A84C" stroke-width="1.5"/>
  <!-- Diamond shape -->
  <polygon points="60,22 90,50 60,90 30,50" fill="#C9A84C" opacity="0.6" stroke="#E8D48B" stroke-width="1.5"/>
  <!-- Diamond facets -->
  <line x1="60" y1="22" x2="60" y2="90" stroke="#E8D48B" stroke-width="1" opacity="0.6"/>
  <line x1="30" y1="50" x2="90" y2="50" stroke="#E8D48B" stroke-width="1" opacity="0.6"/>
  <line x1="60" y1="22" x2="30" y2="50" stroke="#E8D48B" stroke-width="0.8" opacity="0.4"/>
  <line x1="60" y1="22" x2="90" y2="50" stroke="#E8D48B" stroke-width="0.8" opacity="0.4"/>
  <line x1="30" y1="50" x2="60" y2="90" stroke="#E8D48B" stroke-width="0.8" opacity="0.4"/>
  <line x1="90" y1="50" x2="60" y2="90" stroke="#E8D48B" stroke-width="0.8" opacity="0.4"/>
  <!-- Sparkle -->
  <path d="M78 30 L80 36 L86 38 L80 40 L78 46 L76 40 L70 38 L76 36 Z" fill="#E8D48B"/>
  <path d="M35 28 L36 32 L40 33 L36 34 L35 38 L34 34 L30 33 L34 32 Z" fill="#E8D48B" opacity="0.6"/>
</svg>
